<?xml version="1.0" encoding="UTF-8"?><svg xmlns="http://www.w3.org/2000/svg" xmlns:xlink="http://www.w3.org/1999/xlink" viewBox="0 0 1796.52 596.2"><defs><style>.cls-1{fill:url(#New_Gradient_Swatch_10);}.cls-1,.cls-2,.cls-3,.cls-4,.cls-5,.cls-6,.cls-7,.cls-8,.cls-9,.cls-10,.cls-11,.cls-12,.cls-13,.cls-14,.cls-15,.cls-16,.cls-17,.cls-18,.cls-19,.cls-20,.cls-21,.cls-22,.cls-23,.cls-24,.cls-25,.cls-26,.cls-27,.cls-28,.cls-29,.cls-30,.cls-31,.cls-32{mix-blend-mode:multiply;}.cls-1,.cls-2,.cls-3,.cls-4,.cls-5,.cls-6,.cls-7,.cls-8,.cls-9,.cls-10,.cls-11,.cls-12,.cls-13,.cls-14,.cls-15,.cls-16,.cls-17,.cls-18,.cls-19,.cls-20,.cls-21,.cls-22,.cls-23,.cls-24,.cls-25,.cls-26,.cls-27,.cls-28,.cls-29,.cls-30,.cls-31,.cls-32,.cls-33,.cls-34,.cls-35,.cls-36,.cls-37,.cls-38,.cls-39,.cls-40,.cls-41,.cls-42{stroke-width:0px;}.cls-2{fill:url(#New_Gradient_Swatch_12);}.cls-3{fill:url(#New_Gradient_Swatch_10-4);}.cls-4{fill:url(#New_Gradient_Swatch_10-2);}.cls-5{fill:url(#New_Gradient_Swatch_10-3);}.cls-6{fill:url(#New_Gradient_Swatch_10-6);}.cls-7{fill:url(#New_Gradient_Swatch_10-5);}.cls-8{fill:url(#New_Gradient_Swatch_12-5);}.cls-9{fill:url(#New_Gradient_Swatch_12-3);}.cls-10{fill:url(#New_Gradient_Swatch_12-4);}.cls-11{fill:url(#New_Gradient_Swatch_12-2);}.cls-12{fill:url(#New_Gradient_Swatch_2);}.cls-13{fill:url(#New_Gradient_Swatch_1);}.cls-14{fill:url(#New_Gradient_Swatch_5);}.cls-15{fill:url(#New_Gradient_Swatch_6);}.cls-16{fill:url(#New_Gradient_Swatch_2-3);}.cls-17{fill:url(#New_Gradient_Swatch_2-4);}.cls-18{fill:url(#New_Gradient_Swatch_2-5);}.cls-19{fill:url(#New_Gradient_Swatch_2-6);}.cls-20{fill:url(#New_Gradient_Swatch_2-2);}.cls-21{fill:url(#New_Gradient_Swatch_1-4);}.cls-22{fill:url(#New_Gradient_Swatch_1-3);}.cls-23{fill:url(#New_Gradient_Swatch_1-6);}.cls-24{fill:url(#New_Gradient_Swatch_1-5);}.cls-25{fill:url(#New_Gradient_Swatch_1-2);}.cls-26{fill:url(#New_Gradient_Swatch_6-4);}.cls-27{fill:url(#New_Gradient_Swatch_6-5);}.cls-28{fill:url(#New_Gradient_Swatch_6-3);}.cls-29{fill:url(#New_Gradient_Swatch_6-2);}.cls-30{fill:url(#New_Gradient_Swatch_5-2);}.cls-31{fill:url(#New_Gradient_Swatch_5-3);}.cls-32{fill:url(#New_Gradient_Swatch_5-4);}.cls-43{isolation:isolate;}.cls-33{filter:url(#drop-shadow-5);}.cls-33,.cls-34,.cls-35,.cls-36,.cls-37,.cls-38,.cls-39,.cls-40,.cls-41,.cls-42{fill:#fff;}.cls-34{filter:url(#drop-shadow-9);}.cls-35{filter:url(#drop-shadow-8);}.cls-36{filter:url(#drop-shadow-2);}.cls-37{filter:url(#drop-shadow-6);}.cls-38{filter:url(#drop-shadow-1);}.cls-39{filter:url(#drop-shadow-3);}.cls-40{filter:url(#drop-shadow-7);}.cls-41{filter:url(#drop-shadow-4);}.cls-42{filter:url(#drop-shadow-10);}</style><linearGradient id="New_Gradient_Swatch_1" x1="155.62" y1="256.57" x2="342.79" y2="256.57" gradientTransform="translate(462.27 -30.72) rotate(80.73)" gradientUnits="userSpaceOnUse"><stop offset="0" stop-color="#ff63a8"/><stop offset="1" stop-color="#ed1e79"/></linearGradient><linearGradient id="New_Gradient_Swatch_6" x1="371.18" y1="207.15" x2="707.66" y2="207.15" gradientTransform="translate(304.47 -320.76) rotate(45)" gradientUnits="userSpaceOnUse"><stop offset="0" stop-color="#1b75bb"/><stop offset="1" stop-color="#2bb3ed"/></linearGradient><linearGradient id="New_Gradient_Swatch_6-2" x1="893.78" y1="229.23" x2="1194.51" y2="229.23" gradientTransform="translate(1193.56 -829.29) rotate(85.65)" xlink:href="#New_Gradient_Swatch_6"/><linearGradient id="New_Gradient_Swatch_6-3" x1="1480.52" y1="229.23" x2="1650.87" y2="229.23" gradientTransform="matrix(1,0,0,1,0,0)" xlink:href="#New_Gradient_Swatch_6"/><linearGradient id="New_Gradient_Swatch_1-2" x1="1139.83" y1="168.24" x2="1327" y2="168.24" gradientTransform="matrix(1,0,0,1,0,0)" xlink:href="#New_Gradient_Swatch_1"/><linearGradient id="New_Gradient_Swatch_1-3" x1="1467.9" y1="354.36" x2="1690.82" y2="354.36" gradientTransform="translate(29.63 -112.84) rotate(4.13)" xlink:href="#New_Gradient_Swatch_1"/><linearGradient id="New_Gradient_Swatch_6-4" x1="1101.98" y1="535.22" x2="1211.34" y2="535.22" gradientTransform="matrix(1,0,0,1,0,0)" xlink:href="#New_Gradient_Swatch_6"/><linearGradient id="New_Gradient_Swatch_6-5" x1="110.41" y1="145.11" x2="167.19" y2="145.11" gradientTransform="translate(279.21 1.56) rotate(88.09)" xlink:href="#New_Gradient_Swatch_6"/><linearGradient id="New_Gradient_Swatch_2" x1="0" y1="297.58" x2="58.88" y2="297.58" gradientUnits="userSpaceOnUse"><stop offset="0" stop-color="#faaf40"/><stop offset="1" stop-color="#ffdd1a"/></linearGradient><linearGradient id="New_Gradient_Swatch_2-2" x1="1750.76" y1="276.29" x2="1796.52" y2="276.29" xlink:href="#New_Gradient_Swatch_2"/><linearGradient id="New_Gradient_Swatch_2-3" x1="1351.19" y1="504.72" x2="1412.17" y2="504.72" xlink:href="#New_Gradient_Swatch_2"/><linearGradient id="New_Gradient_Swatch_2-4" x1="947.41" y1="437.43" x2="1197.67" y2="437.43" xlink:href="#New_Gradient_Swatch_2"/><linearGradient id="New_Gradient_Swatch_12" x1="602.51" y1="100.94" x2="803.35" y2="100.94" gradientTransform="translate(277.26 -467.48) rotate(45)" gradientUnits="userSpaceOnUse"><stop offset="0" stop-color="#f15700"/><stop offset="1" stop-color="#ffb13d"/></linearGradient><linearGradient id="New_Gradient_Swatch_12-2" x1="1222.11" y1="276.81" x2="1550.71" y2="276.81" gradientTransform="translate(6.26 -29.7) rotate(1.23)" xlink:href="#New_Gradient_Swatch_12"/><linearGradient id="New_Gradient_Swatch_2-5" x1="227.13" y1="348.05" x2="508.93" y2="348.05" gradientTransform="translate(353.9 -158.29) rotate(45)" xlink:href="#New_Gradient_Swatch_2"/><linearGradient id="New_Gradient_Swatch_2-6" x1="987.37" y1="75.71" x2="1119.85" y2="75.71" gradientTransform="translate(1111.72 -979.02) rotate(89.04)" xlink:href="#New_Gradient_Swatch_2"/><linearGradient id="New_Gradient_Swatch_12-3" x1="175.6" y1="460.56" x2="299.68" y2="460.56" gradientTransform="matrix(1,0,0,1,0,0)" xlink:href="#New_Gradient_Swatch_12"/><linearGradient id="New_Gradient_Swatch_12-4" x1="1700.29" y1="316" x2="1777" y2="316" gradientTransform="matrix(1,0,0,1,0,0)" xlink:href="#New_Gradient_Swatch_12"/><linearGradient id="New_Gradient_Swatch_12-5" x1="833.84" y1="479.49" x2="953.72" y2="479.49" gradientTransform="matrix(1,0,0,1,0,0)" xlink:href="#New_Gradient_Swatch_12"/><linearGradient id="New_Gradient_Swatch_5" x1="658.24" y1="320.71" x2="994.72" y2="320.71" gradientUnits="userSpaceOnUse"><stop offset="0" stop-color="#009345"/><stop offset="1" stop-color="#27d93f"/></linearGradient><linearGradient id="New_Gradient_Swatch_5-2" x1="136.7" y1="331.22" x2="212.4" y2="331.22" xlink:href="#New_Gradient_Swatch_5"/><linearGradient id="New_Gradient_Swatch_5-3" x1="1589.88" y1="170.34" x2="1663.48" y2="170.34" gradientTransform="translate(1484.99 -1459.08) rotate(79.05)" xlink:href="#New_Gradient_Swatch_5"/><linearGradient id="New_Gradient_Swatch_5-4" x1="1313.33" y1="58.88" x2="1372.22" y2="58.88" xlink:href="#New_Gradient_Swatch_5"/><linearGradient id="New_Gradient_Swatch_10" x1="861.18" y1="43.11" x2="947.41" y2="43.11" gradientUnits="userSpaceOnUse"><stop offset="0" stop-color="#e03cd9"/><stop offset="1" stop-color="#93278f"/></linearGradient><linearGradient id="New_Gradient_Swatch_10-2" x1="19.98" y1="268.13" x2="106.2" y2="268.13" gradientTransform="translate(317.66 162.91) rotate(80.78)" xlink:href="#New_Gradient_Swatch_10"/><linearGradient id="New_Gradient_Swatch_10-3" x1="1622.47" y1="432.17" x2="1708.7" y2="432.17" xlink:href="#New_Gradient_Swatch_10"/><linearGradient id="New_Gradient_Swatch_10-4" x1="294.95" y1="184.01" x2="399.05" y2="184.01" gradientTransform="translate(473.05 -187.98) rotate(80.78)" xlink:href="#New_Gradient_Swatch_10"/><linearGradient id="New_Gradient_Swatch_10-5" x1="452.67" y1="421.13" x2="754.46" y2="421.13" gradientTransform="translate(1009.15 -192.99) rotate(88.54)" xlink:href="#New_Gradient_Swatch_10"/><linearGradient id="New_Gradient_Swatch_10-6" x1="1063.07" y1="355.41" x2="1321.74" y2="355.41" gradientTransform="translate(1246.83 -887.65) rotate(75.91)" xlink:href="#New_Gradient_Swatch_10"/><linearGradient id="New_Gradient_Swatch_1-4" x1="773.91" y1="114.61" x2="933.74" y2="114.61" gradientTransform="translate(932.06 -743.31) rotate(87.57)" xlink:href="#New_Gradient_Swatch_1"/><linearGradient id="New_Gradient_Swatch_1-5" x1="434.27" y1="542.58" x2="541.53" y2="542.58" gradientTransform="translate(57.68 -46.78) rotate(5.83)" xlink:href="#New_Gradient_Swatch_1"/><linearGradient id="New_Gradient_Swatch_1-6" x1="811.76" y1="532.06" x2="886.42" y2="532.06" gradientTransform="translate(1352.63 -334.25) rotate(88.1)" xlink:href="#New_Gradient_Swatch_1"/><filter id="drop-shadow-1" filterUnits="userSpaceOnUse"><feOffset dx="0" dy="7"/><feGaussianBlur result="blur" stdDeviation="20"/><feFlood flood-color="#000" flood-opacity=".75"/><feComposite in2="blur" operator="in"/><feComposite in="SourceGraphic"/></filter><filter id="drop-shadow-2" filterUnits="userSpaceOnUse"><feOffset dx="0" dy="7"/><feGaussianBlur result="blur-2" stdDeviation="20"/><feFlood flood-color="#000" flood-opacity=".75"/><feComposite in2="blur-2" operator="in"/><feComposite in="SourceGraphic"/></filter><filter id="drop-shadow-3" filterUnits="userSpaceOnUse"><feOffset dx="0" dy="7"/><feGaussianBlur result="blur-3" stdDeviation="20"/><feFlood flood-color="#000" flood-opacity=".75"/><feComposite in2="blur-3" operator="in"/><feComposite in="SourceGraphic"/></filter><filter id="drop-shadow-4" filterUnits="userSpaceOnUse"><feOffset dx="0" dy="7"/><feGaussianBlur result="blur-4" stdDeviation="20"/><feFlood flood-color="#000" flood-opacity=".75"/><feComposite in2="blur-4" operator="in"/><feComposite in="SourceGraphic"/></filter><filter id="drop-shadow-5" filterUnits="userSpaceOnUse"><feOffset dx="0" dy="7"/><feGaussianBlur result="blur-5" stdDeviation="20"/><feFlood flood-color="#000" flood-opacity=".75"/><feComposite in2="blur-5" operator="in"/><feComposite in="SourceGraphic"/></filter><filter id="drop-shadow-6" filterUnits="userSpaceOnUse"><feOffset dx="0" dy="7"/><feGaussianBlur result="blur-6" stdDeviation="20"/><feFlood flood-color="#000" flood-opacity=".75"/><feComposite in2="blur-6" operator="in"/><feComposite in="SourceGraphic"/></filter><filter id="drop-shadow-7" filterUnits="userSpaceOnUse"><feOffset dx="0" dy="7"/><feGaussianBlur result="blur-7" stdDeviation="20"/><feFlood flood-color="#000" flood-opacity=".75"/><feComposite in2="blur-7" operator="in"/><feComposite in="SourceGraphic"/></filter><filter id="drop-shadow-8" filterUnits="userSpaceOnUse"><feOffset dx="0" dy="7"/><feGaussianBlur result="blur-8" stdDeviation="20"/><feFlood flood-color="#000" flood-opacity=".75"/><feComposite in2="blur-8" operator="in"/><feComposite in="SourceGraphic"/></filter><filter id="drop-shadow-9" filterUnits="userSpaceOnUse"><feOffset dx="0" dy="7"/><feGaussianBlur result="blur-9" stdDeviation="20"/><feFlood flood-color="#000" flood-opacity=".75"/><feComposite in2="blur-9" operator="in"/><feComposite in="SourceGraphic"/></filter><filter id="drop-shadow-10" filterUnits="userSpaceOnUse"><feOffset dx="0" dy="7"/><feGaussianBlur result="blur-10" stdDeviation="20"/><feFlood flood-color="#000" flood-opacity=".75"/><feComposite in2="blur-10" operator="in"/><feComposite in="SourceGraphic"/></filter></defs><g class="cls-43"><g id="Layer_2"><g id="Layer_1-2"><circle class="cls-13" cx="249.21" cy="256.57" r="93.58" transform="translate(-44.16 461.18) rotate(-80.73)"/><circle class="cls-15" cx="539.42" cy="207.15" r="168.24" transform="translate(11.52 442.1) rotate(-45)"/><circle class="cls-29" cx="1044.15" cy="229.23" r="150.37" transform="translate(736.42 1252.99) rotate(-85.65)"/><path class="cls-28" d="M1650.87,229.23c0,47.04-38.13,85.17-85.17,85.17s-85.17-38.13-85.17-85.17,38.13-85.17,85.17-85.17,85.17,38.13,85.17,85.17Z"/><path class="cls-25" d="M1327,168.24c0,51.68-41.9,93.58-93.58,93.58s-93.58-41.9-93.58-93.58,41.9-93.58,93.58-93.58,93.58,41.9,93.58,93.58Z"/><circle class="cls-22" cx="1579.36" cy="354.36" r="111.46" transform="translate(-21.42 114.68) rotate(-4.13)"/><path class="cls-26" d="M1211.34,535.22c0,30.2-24.48,54.68-54.68,54.68s-54.68-24.48-54.68-54.68,24.48-54.68,54.68-54.68,54.68,24.48,54.68,54.68Z"/><circle class="cls-27" cx="138.8" cy="145.11" r="28.39" transform="translate(-10.85 279) rotate(-88.09)"/><path class="cls-12" d="M58.88,297.58c0,16.26-13.18,29.44-29.44,29.44S0,313.84,0,297.58s13.18-29.44,29.44-29.44,29.44,13.18,29.44,29.44Z"/><path class="cls-20" d="M1796.52,276.29c0,12.64-10.24,22.88-22.88,22.88s-22.88-10.24-22.88-22.88,10.24-22.88,22.88-22.88,22.88,10.24,22.88,22.88Z"/><path class="cls-16" d="M1412.17,504.72c0,16.84-13.65,30.49-30.49,30.49s-30.49-13.65-30.49-30.49,13.65-30.49,30.49-30.49,30.49,13.65,30.49,30.49Z"/><path class="cls-17" d="M1197.67,437.43c0,69.1-56.03,125.13-125.13,125.13s-125.13-56.02-125.13-125.13,56.03-125.13,125.13-125.13,125.13,56.03,125.13,125.13Z"/><circle class="cls-2" cx="702.93" cy="100.94" r="100.42" transform="translate(134.51 526.61) rotate(-45)"/><circle class="cls-11" cx="1386.41" cy="276.81" r="164.3" transform="translate(-5.62 29.83) rotate(-1.23)"/><circle class="cls-18" cx="368.03" cy="348.05" r="140.9" transform="translate(-138.32 362.18) rotate(-45)"/><circle class="cls-19" cx="1053.61" cy="75.71" r="66.25" transform="translate(960.32 1127.91) rotate(-89.04)"/><path class="cls-9" d="M299.68,460.56c0,34.26-27.78,62.04-62.04,62.04s-62.04-27.78-62.04-62.04,27.78-62.04,62.04-62.04,62.04,27.78,62.04,62.04Z"/><path class="cls-10" d="M1777,316c0,21.18-17.17,38.36-38.36,38.36s-38.36-17.17-38.36-38.36,17.17-38.36,38.36-38.36,38.36,17.17,38.36,38.36Z"/><path class="cls-8" d="M953.72,479.49c0,33.1-26.83,59.93-59.93,59.93s-59.94-26.83-59.94-59.93,26.84-59.94,59.94-59.94,59.93,26.83,59.93,59.94Z"/><circle class="cls-14" cx="826.48" cy="320.71" r="168.24"/><path class="cls-30" d="M212.4,331.22c0,20.91-16.95,37.85-37.85,37.85s-37.85-16.95-37.85-37.85,16.95-37.85,37.85-37.85,37.85,16.95,37.85,37.85Z"/><circle class="cls-31" cx="1626.68" cy="170.34" r="36.8" transform="translate(1150.5 1735.07) rotate(-79.05)"/><path class="cls-32" d="M1372.22,58.88c0,16.26-13.18,29.44-29.44,29.44s-29.44-13.18-29.44-29.44,13.18-29.44,29.44-29.44,29.44,13.18,29.44,29.44Z"/><path class="cls-1" d="M947.41,43.11c0,23.81-19.3,43.11-43.11,43.11s-43.11-19.3-43.11-43.11S880.49,0,904.3,0s43.11,19.3,43.11,43.11Z"/><circle class="cls-4" cx="63.09" cy="268.13" r="43.11" transform="translate(-211.69 287.46) rotate(-80.78)"/><path class="cls-5" d="M1708.7,432.17c0,23.81-19.3,43.11-43.11,43.11s-43.11-19.3-43.11-43.11,19.3-43.11,43.11-43.11,43.11,19.3,43.11,43.11Z"/><circle class="cls-3" cx="347" cy="184.01" r="52.05" transform="translate(109.78 497.05) rotate(-80.78)"/><circle class="cls-7" cx="603.56" cy="421.13" r="150.89" transform="translate(167.17 1013.75) rotate(-88.54)"/><circle class="cls-6" cx="1192.41" cy="355.41" r="129.33" transform="translate(557.4 1425.41) rotate(-75.91)"/><circle class="cls-21" cx="853.82" cy="114.61" r="79.91" transform="translate(703.04 962.8) rotate(-87.57)"/><circle class="cls-24" cx="487.9" cy="542.58" r="53.63" transform="translate(-52.62 52.4) rotate(-5.83)"/><circle class="cls-23" cx="849.09" cy="532.06" r="37.33" transform="translate(289.1 1363) rotate(-88.1)"/><path class="cls-38" d="M1216.83,195.73c28.66,0,53.3,10.38,73.93,31.12,20.62,20.75,30.93,46.04,30.93,75.88s-10.17,54.58-30.52,75.05c-20.35,20.48-45.04,30.71-74.06,30.71s-55.67-10.51-75.79-31.53c-20.12-21.03-30.18-45.99-30.18-74.91,0-19.37,4.68-37.18,14.05-53.43,9.37-16.25,22.26-29.12,38.66-38.63,16.39-9.5,34.05-14.25,52.98-14.25ZM1216.42,233.46c-18.75,0-34.51,6.52-47.29,19.56-12.77,13.04-19.16,29.61-19.16,49.71,0,22.4,8.04,40.12,24.12,53.15,12.5,10.19,26.84,15.28,43.01,15.28,18.29,0,33.86-6.61,46.73-19.83,12.87-13.22,19.3-29.51,19.3-48.89s-6.48-35.6-19.44-48.95c-12.96-13.36-28.72-20.04-47.28-20.04Z"/><path class="cls-36" d="M1308.29,204.77h38.7v130.99c0,11.28.98,19.26,2.96,23.94,1.97,4.68,5.23,8.42,9.78,11.22,4.54,2.79,10.03,4.2,16.45,4.2,6.79,0,12.64-1.56,17.56-4.68,4.91-3.12,8.31-7.09,10.19-11.9,1.88-4.82,2.82-14.02,2.82-27.59v-126.18h38.69v120.77c0,20.38-1.15,34.52-3.44,42.41-2.29,7.89-6.68,15.51-13.15,22.85-6.47,7.35-13.94,12.79-22.38,16.32-8.45,3.53-18.27,5.3-29.47,5.3-14.69,0-27.47-3.37-38.35-10.12-10.88-6.75-18.66-15.2-23.34-25.34-4.68-10.15-7.02-27.29-7.02-51.43v-120.77Z"/><path class="cls-39" d="M1002.08,191.27h41.4l37.79,72.87,37.61-72.87h40.87l-59.28,114.85v87.72h-38.84v-87.72l-59.56-114.85Z"/><path class="cls-41" d="M1456.15,364.08c6.52,0,12.09,2.3,16.73,6.89,4.63,4.59,6.96,10.15,6.96,16.66s-2.32,11.96-6.96,16.6c-4.64,4.63-10.21,6.95-16.73,6.95s-12.07-2.3-16.66-6.89c-4.59-4.59-6.88-10.14-6.88-16.66s2.29-12.07,6.88-16.66c4.59-4.59,10.14-6.89,16.66-6.89Z"/><rect class="cls-33" x="1437.14" y="199.66" width="38" height="148.03"/><path class="cls-37" d="M619.47,189.47h39.1l77.91,202.57h-40.07l-15.85-41.72h-82.66l-16.48,41.72h-40.07l78.12-202.57ZM639.27,243.17l-27.18,69.54h54.19l-27.01-69.54Z"/><path class="cls-40" d="M416.35,201.52h39.11v76.43h67.62v-76.43h38.97v202.57h-38.97v-88.82h-67.62v88.82h-39.11v-202.57Z"/><path class="cls-35" d="M854.98,195.53h38.97v69.84l54.99-69.84h46.3l-70.74,90.41,77.62,112.16h-45.72l-62.44-90v90h-38.97v-202.56Z"/><path class="cls-34" d="M307.56,211.9h111.96v38.01h-36.9v164.56h-39.11v-164.56h-35.94v-38.01Z"/><path class="cls-42" d="M704.13,206.88h35.03l82.09,126.25v-126.25h36.52v191.85h-35.13l-81.99-125.86v125.86h-36.52v-191.85Z"/></g></g></g></svg>